solid ac_cassette
 facet normal -1.000000e+00  0.000000e+00  0.000000e+00
   outer loop
    vertex 2.330000e+00 1.830000e+00 3.128909e+00
    vertex 2.330000e+00 2.670000e+00 2.828909e+00
    vertex 2.330000e+00 1.830000e+00 2.828909e+00
   endloop
 endfacet
 facet normal -1.000000e+00  0.000000e+00  0.000000e+00
   outer loop
    vertex 2.330000e+00 1.830000e+00 3.128909e+00
    vertex 2.330000e+00 2.670000e+00 3.128909e+00
    vertex 2.330000e+00 2.670000e+00 2.828909e+00
   endloop
 endfacet
 facet normal  1.000000e+00  0.000000e+00  0.000000e+00
   outer loop
    vertex 3.170000e+00 1.830000e+00 3.128909e+00
    vertex 3.170000e+00 1.830000e+00 2.828909e+00
    vertex 3.170000e+00 2.670000e+00 2.828909e+00
   endloop
 endfacet
 facet normal  1.000000e+00 -0.000000e+00  0.000000e+00
   outer loop
    vertex 3.170000e+00 1.830000e+00 3.128909e+00
    vertex 3.170000e+00 2.670000e+00 2.828909e+00
    vertex 3.170000e+00 2.670000e+00 3.128909e+00
   endloop
 endfacet
 facet normal  0.000000e+00 -1.000000e+00 -0.000000e+00
   outer loop
    vertex 3.170000e+00 1.830000e+00 3.128909e+00
    vertex 2.330000e+00 1.830000e+00 2.828909e+00
    vertex 3.170000e+00 1.830000e+00 2.828909e+00
   endloop
 endfacet
 facet normal -0.000000e+00 -1.000000e+00  0.000000e+00
   outer loop
    vertex 3.170000e+00 1.830000e+00 3.128909e+00
    vertex 2.330000e+00 1.830000e+00 3.128909e+00
    vertex 2.330000e+00 1.830000e+00 2.828909e+00
   endloop
 endfacet
 facet normal  0.000000e+00  1.000000e+00  0.000000e+00
   outer loop
    vertex 3.170000e+00 2.670000e+00 3.128909e+00
    vertex 3.170000e+00 2.670000e+00 2.828909e+00
    vertex 2.330000e+00 2.670000e+00 2.828909e+00
   endloop
 endfacet
 facet normal  0.000000e+00  1.000000e+00  0.000000e+00
   outer loop
    vertex 3.170000e+00 2.670000e+00 3.128909e+00
    vertex 2.330000e+00 2.670000e+00 2.828909e+00
    vertex 2.330000e+00 2.670000e+00 3.128909e+00
   endloop
 endfacet
 facet normal  0.000000e+00  0.000000e+00  1.000000e+00
   outer loop
    vertex 3.170000e+00 2.670000e+00 3.128909e+00
    vertex 2.330000e+00 2.670000e+00 3.128909e+00
    vertex 2.330000e+00 1.830000e+00 3.128909e+00
   endloop
 endfacet
 facet normal  0.000000e+00  0.000000e+00  1.000000e+00
   outer loop
    vertex 3.170000e+00 2.670000e+00 3.128909e+00
    vertex 2.330000e+00 1.830000e+00 3.128909e+00
    vertex 3.170000e+00 1.830000e+00 3.128909e+00
   endloop
 endfacet
 facet normal  0.000000e+00  0.000000e+00  1.000000e+00
   outer loop
    vertex 2.950000e+00 2.450000e+00 2.828909e+00
    vertex 2.550000e+00 2.050000e+00 2.828909e+00
    vertex 2.950000e+00 2.050000e+00 2.828909e+00
   endloop
 endfacet
 facet normal  0.000000e+00  0.000000e+00  1.000000e+00
   outer loop
    vertex 2.950000e+00 2.450000e+00 2.828909e+00
    vertex 2.550000e+00 2.450000e+00 2.828909e+00
    vertex 2.550000e+00 2.050000e+00 2.828909e+00
   endloop
 endfacet
 facet normal  0.000000e+00  0.000000e+00  1.000000e+00
   outer loop
    vertex 3.130000e+00 2.630000e+00 2.828909e+00
    vertex 2.370000e+00 1.870000e+00 2.828909e+00
    vertex 3.130000e+00 1.870000e+00 2.828909e+00
   endloop
 endfacet
 facet normal  0.000000e+00  0.000000e+00  1.000000e+00
   outer loop
    vertex 3.130000e+00 2.630000e+00 2.828909e+00
    vertex 2.370000e+00 2.630000e+00 2.828909e+00
    vertex 2.370000e+00 1.870000e+00 2.828909e+00
   endloop
 endfacet
endsolid ac_cassette
