solid outlet
 facet normal  0.000000e+00  0.000000e+00  1.000000e+00
   outer loop
    vertex 2.950000e+00 2.450000e+00 2.828909e+00
    vertex 2.550000e+00 2.050000e+00 2.828909e+00
    vertex 2.950000e+00 2.050000e+00 2.828909e+00
   endloop
 endfacet
 facet normal  0.000000e+00  0.000000e+00  1.000000e+00
   outer loop
    vertex 2.950000e+00 2.450000e+00 2.828909e+00
    vertex 2.550000e+00 2.450000e+00 2.828909e+00
    vertex 2.550000e+00 2.050000e+00 2.828909e+00
   endloop
 endfacet
endsolid outlet
