solid person_2
 facet normal -1.000000e+00  0.000000e+00  0.000000e+00
   outer loop
    vertex 2.900000e+00 2.900000e+00 1.700000e+00
    vertex 2.900000e+00 3.250000e+00 0.000000e+00
    vertex 2.900000e+00 2.900000e+00 0.000000e+00
   endloop
 endfacet
 facet normal -1.000000e+00  0.000000e+00  0.000000e+00
   outer loop
    vertex 2.900000e+00 2.900000e+00 1.700000e+00
    vertex 2.900000e+00 3.250000e+00 1.700000e+00
    vertex 2.900000e+00 3.250000e+00 0.000000e+00
   endloop
 endfacet
 facet normal  1.000000e+00  0.000000e+00  0.000000e+00
   outer loop
    vertex 3.300000e+00 2.900000e+00 1.700000e+00
    vertex 3.300000e+00 2.900000e+00 0.000000e+00
    vertex 3.300000e+00 3.250000e+00 0.000000e+00
   endloop
 endfacet
 facet normal  1.000000e+00 -0.000000e+00  0.000000e+00
   outer loop
    vertex 3.300000e+00 2.900000e+00 1.700000e+00
    vertex 3.300000e+00 3.250000e+00 0.000000e+00
    vertex 3.300000e+00 3.250000e+00 1.700000e+00
   endloop
 endfacet
 facet normal  0.000000e+00 -1.000000e+00 -0.000000e+00
   outer loop
    vertex 3.300000e+00 2.900000e+00 1.700000e+00
    vertex 2.900000e+00 2.900000e+00 0.000000e+00
    vertex 3.300000e+00 2.900000e+00 0.000000e+00
   endloop
 endfacet
 facet normal -0.000000e+00 -1.000000e+00  0.000000e+00
   outer loop
    vertex 3.300000e+00 2.900000e+00 1.700000e+00
    vertex 2.900000e+00 2.900000e+00 1.700000e+00
    vertex 2.900000e+00 2.900000e+00 0.000000e+00
   endloop
 endfacet
 facet normal  0.000000e+00  1.000000e+00  0.000000e+00
   outer loop
    vertex 3.300000e+00 3.250000e+00 1.700000e+00
    vertex 3.300000e+00 3.250000e+00 0.000000e+00
    vertex 2.900000e+00 3.250000e+00 0.000000e+00
   endloop
 endfacet
 facet normal  0.000000e+00  1.000000e+00  0.000000e+00
   outer loop
    vertex 3.300000e+00 3.250000e+00 1.700000e+00
    vertex 2.900000e+00 3.250000e+00 0.000000e+00
    vertex 2.900000e+00 3.250000e+00 1.700000e+00
   endloop
 endfacet
 facet normal -0.000000e+00  0.000000e+00 -1.000000e+00
   outer loop
    vertex 3.300000e+00 3.250000e+00 0.000000e+00
    vertex 2.900000e+00 2.900000e+00 0.000000e+00
    vertex 2.900000e+00 3.250000e+00 0.000000e+00
   endloop
 endfacet
 facet normal  0.000000e+00 -0.000000e+00 -1.000000e+00
   outer loop
    vertex 3.300000e+00 3.250000e+00 0.000000e+00
    vertex 3.300000e+00 2.900000e+00 0.000000e+00
    vertex 2.900000e+00 2.900000e+00 0.000000e+00
   endloop
 endfacet
 facet normal  0.000000e+00  0.000000e+00  1.000000e+00
   outer loop
    vertex 3.300000e+00 3.250000e+00 1.700000e+00
    vertex 2.900000e+00 3.250000e+00 1.700000e+00
    vertex 2.900000e+00 2.900000e+00 1.700000e+00
   endloop
 endfacet
 facet normal  0.000000e+00  0.000000e+00  1.000000e+00
   outer loop
    vertex 3.300000e+00 3.250000e+00 1.700000e+00
    vertex 2.900000e+00 2.900000e+00 1.700000e+00
    vertex 3.300000e+00 2.900000e+00 1.700000e+00
   endloop
 endfacet
endsolid person_2
