solid person_3
 facet normal -1.000000e+00  0.000000e+00  0.000000e+00
   outer loop
    vertex 3.900000e+00 1.300000e+00 1.700000e+00
    vertex 3.900000e+00 1.650000e+00 0.000000e+00
    vertex 3.900000e+00 1.300000e+00 0.000000e+00
   endloop
 endfacet
 facet normal -1.000000e+00  0.000000e+00  0.000000e+00
   outer loop
    vertex 3.900000e+00 1.300000e+00 1.700000e+00
    vertex 3.900000e+00 1.650000e+00 1.700000e+00
    vertex 3.900000e+00 1.650000e+00 0.000000e+00
   endloop
 endfacet
 facet normal  1.000000e+00  0.000000e+00  0.000000e+00
   outer loop
    vertex 4.300000e+00 1.300000e+00 1.700000e+00
    vertex 4.300000e+00 1.300000e+00 0.000000e+00
    vertex 4.300000e+00 1.650000e+00 0.000000e+00
   endloop
 endfacet
 facet normal  1.000000e+00 -0.000000e+00  0.000000e+00
   outer loop
    vertex 4.300000e+00 1.300000e+00 1.700000e+00
    vertex 4.300000e+00 1.650000e+00 0.000000e+00
    vertex 4.300000e+00 1.650000e+00 1.700000e+00
   endloop
 endfacet
 facet normal  0.000000e+00 -1.000000e+00 -0.000000e+00
   outer loop
    vertex 4.300000e+00 1.300000e+00 1.700000e+00
    vertex 3.900000e+00 1.300000e+00 0.000000e+00
    vertex 4.300000e+00 1.300000e+00 0.000000e+00
   endloop
 endfacet
 facet normal -0.000000e+00 -1.000000e+00  0.000000e+00
   outer loop
    vertex 4.300000e+00 1.300000e+00 1.700000e+00
    vertex 3.900000e+00 1.300000e+00 1.700000e+00
    vertex 3.900000e+00 1.300000e+00 0.000000e+00
   endloop
 endfacet
 facet normal  0.000000e+00  1.000000e+00  0.000000e+00
   outer loop
    vertex 4.300000e+00 1.650000e+00 1.700000e+00
    vertex 4.300000e+00 1.650000e+00 0.000000e+00
    vertex 3.900000e+00 1.650000e+00 0.000000e+00
   endloop
 endfacet
 facet normal  0.000000e+00  1.000000e+00  0.000000e+00
   outer loop
    vertex 4.300000e+00 1.650000e+00 1.700000e+00
    vertex 3.900000e+00 1.650000e+00 0.000000e+00
    vertex 3.900000e+00 1.650000e+00 1.700000e+00
   endloop
 endfacet
 facet normal -0.000000e+00  0.000000e+00 -1.000000e+00
   outer loop
    vertex 4.300000e+00 1.650000e+00 0.000000e+00
    vertex 3.900000e+00 1.300000e+00 0.000000e+00
    vertex 3.900000e+00 1.650000e+00 0.000000e+00
   endloop
 endfacet
 facet normal  0.000000e+00 -0.000000e+00 -1.000000e+00
   outer loop
    vertex 4.300000e+00 1.650000e+00 0.000000e+00
    vertex 4.300000e+00 1.300000e+00 0.000000e+00
    vertex 3.900000e+00 1.300000e+00 0.000000e+00
   endloop
 endfacet
 facet normal  0.000000e+00  0.000000e+00  1.000000e+00
   outer loop
    vertex 4.300000e+00 1.650000e+00 1.700000e+00
    vertex 3.900000e+00 1.650000e+00 1.700000e+00
    vertex 3.900000e+00 1.300000e+00 1.700000e+00
   endloop
 endfacet
 facet normal  0.000000e+00  0.000000e+00  1.000000e+00
   outer loop
    vertex 4.300000e+00 1.650000e+00 1.700000e+00
    vertex 3.900000e+00 1.300000e+00 1.700000e+00
    vertex 4.300000e+00 1.300000e+00 1.700000e+00
   endloop
 endfacet
endsolid person_3
