solid person_1
 facet normal -1.000000e+00  0.000000e+00  0.000000e+00
   outer loop
    vertex 1.300000e+00 1.100000e+00 1.700000e+00
    vertex 1.300000e+00 1.450000e+00 0.000000e+00
    vertex 1.300000e+00 1.100000e+00 0.000000e+00
   endloop
 endfacet
 facet normal -1.000000e+00  0.000000e+00  0.000000e+00
   outer loop
    vertex 1.300000e+00 1.100000e+00 1.700000e+00
    vertex 1.300000e+00 1.450000e+00 1.700000e+00
    vertex 1.300000e+00 1.450000e+00 0.000000e+00
   endloop
 endfacet
 facet normal  1.000000e+00  0.000000e+00  0.000000e+00
   outer loop
    vertex 1.700000e+00 1.100000e+00 1.700000e+00
    vertex 1.700000e+00 1.100000e+00 0.000000e+00
    vertex 1.700000e+00 1.450000e+00 0.000000e+00
   endloop
 endfacet
 facet normal  1.000000e+00 -0.000000e+00  0.000000e+00
   outer loop
    vertex 1.700000e+00 1.100000e+00 1.700000e+00
    vertex 1.700000e+00 1.450000e+00 0.000000e+00
    vertex 1.700000e+00 1.450000e+00 1.700000e+00
   endloop
 endfacet
 facet normal  0.000000e+00 -1.000000e+00 -0.000000e+00
   outer loop
    vertex 1.700000e+00 1.100000e+00 1.700000e+00
    vertex 1.300000e+00 1.100000e+00 0.000000e+00
    vertex 1.700000e+00 1.100000e+00 0.000000e+00
   endloop
 endfacet
 facet normal -0.000000e+00 -1.000000e+00  0.000000e+00
   outer loop
    vertex 1.700000e+00 1.100000e+00 1.700000e+00
    vertex 1.300000e+00 1.100000e+00 1.700000e+00
    vertex 1.300000e+00 1.100000e+00 0.000000e+00
   endloop
 endfacet
 facet normal  0.000000e+00  1.000000e+00  0.000000e+00
   outer loop
    vertex 1.700000e+00 1.450000e+00 1.700000e+00
    vertex 1.700000e+00 1.450000e+00 0.000000e+00
    vertex 1.300000e+00 1.450000e+00 0.000000e+00
   endloop
 endfacet
 facet normal  0.000000e+00  1.000000e+00  0.000000e+00
   outer loop
    vertex 1.700000e+00 1.450000e+00 1.700000e+00
    vertex 1.300000e+00 1.450000e+00 0.000000e+00
    vertex 1.300000e+00 1.450000e+00 1.700000e+00
   endloop
 endfacet
 facet normal -0.000000e+00  0.000000e+00 -1.000000e+00
   outer loop
    vertex 1.700000e+00 1.450000e+00 0.000000e+00
    vertex 1.300000e+00 1.100000e+00 0.000000e+00
    vertex 1.300000e+00 1.450000e+00 0.000000e+00
   endloop
 endfacet
 facet normal  0.000000e+00 -0.000000e+00 -1.000000e+00
   outer loop
    vertex 1.700000e+00 1.450000e+00 0.000000e+00
    vertex 1.700000e+00 1.100000e+00 0.000000e+00
    vertex 1.300000e+00 1.100000e+00 0.000000e+00
   endloop
 endfacet
 facet normal  0.000000e+00  0.000000e+00  1.000000e+00
   outer loop
    vertex 1.700000e+00 1.450000e+00 1.700000e+00
    vertex 1.300000e+00 1.450000e+00 1.700000e+00
    vertex 1.300000e+00 1.100000e+00 1.700000e+00
   endloop
 endfacet
 facet normal  0.000000e+00  0.000000e+00  1.000000e+00
   outer loop
    vertex 1.700000e+00 1.450000e+00 1.700000e+00
    vertex 1.300000e+00 1.100000e+00 1.700000e+00
    vertex 1.700000e+00 1.100000e+00 1.700000e+00
   endloop
 endfacet
endsolid person_1
