solid roof
 facet normal  1.439398e-01  0.000000e+00  9.895864e-01
   outer loop
    vertex 0.000000e+00 0.000000e+00 3.600000e+00
    vertex 5.500000e+00 0.000000e+00 2.800000e+00
    vertex 5.500000e+00 4.500000e+00 2.800000e+00
   endloop
 endfacet
 facet normal  1.439398e-01 -0.000000e+00  9.895864e-01
   outer loop
    vertex 0.000000e+00 0.000000e+00 3.600000e+00
    vertex 5.500000e+00 4.500000e+00 2.800000e+00
    vertex 0.000000e+00 4.500000e+00 3.600000e+00
   endloop
 endfacet
endsolid roof
