solid supply
 facet normal  0.000000e+00  0.000000e+00  1.000000e+00
   outer loop
    vertex 3.030000e+00 2.530000e+00 2.828909e+00
    vertex 2.470000e+00 1.970000e+00 2.828909e+00
    vertex 3.030000e+00 1.970000e+00 2.828909e+00
   endloop
 endfacet
 facet normal  0.000000e+00  0.000000e+00  1.000000e+00
   outer loop
    vertex 3.030000e+00 2.530000e+00 2.828909e+00
    vertex 2.470000e+00 2.530000e+00 2.828909e+00
    vertex 2.470000e+00 1.970000e+00 2.828909e+00
   endloop
 endfacet
endsolid supply
