solid window
 facet normal  0.000000e+00 -1.000000e+00  0.000000e+00
   outer loop
    vertex 3.950000e+00 0.000000e+00 9.000000e-01
    vertex 3.950000e+00 0.000000e+00 2.400000e+00
    vertex 1.550000e+00 0.000000e+00 2.400000e+00
   endloop
 endfacet
 facet normal  0.000000e+00 -1.000000e+00  0.000000e+00
   outer loop
    vertex 3.950000e+00 0.000000e+00 9.000000e-01
    vertex 1.550000e+00 0.000000e+00 2.400000e+00
    vertex 1.550000e+00 0.000000e+00 9.000000e-01
   endloop
 endfacet
endsolid window
